<svg xmlns="http://www.w3.org/2000/svg" viewBox="0 0 512 512"><defs><linearGradient id="a" x1="256" y1="512" x2="256" gradientUnits="userSpaceOnUse"><stop offset="0" stop-color="#121738"/><stop offset="1" stop-color="#282f5e"/></linearGradient><style>.b{fill:#d17c78}</style></defs><circle cx="256" cy="256" r="256" fill="url(#a)"/><path class="b" d="M116.52 291.34l-4.2 23.47h-49a72.47 72.47 0 007.21-21.9l7-41.42a72.94 72.94 0 001-11.93 51.9 51.9 0 00-.92-10h22.81A87.88 87.88 0 0094 251.49l-7 41.42A134.07 134.07 0 0085.19 309h2c12.02 0 21.73-6.25 29.33-17.66zM124.12 290.82c0-22.29 13.64-43.4 34.87-43.4 13.25 0 21.9 9.84 21.9 25.7 0 22.42-13.77 43.26-34.87 43.26-13.25 0-21.9-9.83-21.9-25.56zM163.45 270c0-9.57-2.1-16.65-7.34-16.65-10.09 0-14.42 25.44-14.42 40.64 0 9.7 2.1 16.52 7.21 16.52 10.1-.03 14.55-25.59 14.55-40.51zM239.36 265a57.61 57.61 0 01-.79 8.65L235.29 293a78.3 78.3 0 00-1.44 12.46 33.81 33.81 0 001.31 9.31h-17.3a17.17 17.17 0 01-1.18-6.82 12.88 12.88 0 01.13-2.1c-5.38 5.9-12.59 10-20.45 10s-12.72-4.85-12.72-11.54c0-11.67 11.27-17.17 23.34-21.11 11.27-3.8 14.55-6 14.94-8.65 1.31-7.08 1.57-9.83 1.57-12.32 0-5.9-2.09-9.18-6.81-9.18-5.9 0-8.92 5-8.92 12.19a38.27 38.27 0 001.18 8.39l-17-.92.39-3.54c1.71-12.71 13-21.5 28.19-21.5 12.02.01 18.84 5.13 18.84 17.33zm-19.67 22.16c0-1.18-1.05-1.45-3.67-1.45-10.36 0-14.68 3.28-14.68 11.41 0 4.85 3 8 7.6 8a17.79 17.79 0 008.26-2.23c.39-2.89 1.05-7.08 2.23-14a9.16 9.16 0 00.26-1.74zM297.56 295.67a57.76 57.76 0 00-1.05 10 49.82 49.82 0 00.92 9.18h-16.52c-.78-1.31-1.18-4.46-1.18-6.95v-.53c-4.72 5.64-10.35 8.39-16.65 8.39-9.7 0-17-7.21-17-21.5 0-22 14.16-46.27 35-46.27 3.28 0 5.9.52 8 2l.53-3a67.75 67.75 0 001.18-11 24.45 24.45 0 00-1.05-7.08A130.85 130.85 0 00310 221.6zm-11.14-33c0-6.55-2.75-9-6.56-9-10.88 0-16.12 23.08-16.12 36.32 0 10.36 3.93 14.81 10.75 14.81a12.88 12.88 0 005.5-1.18l5.9-35.26a29.62 29.62 0 00.53-5.73zM363.24 266.43a32 32 0 01-.52 5.9l-1.58 9.57h-34.47a23.72 23.72 0 00-.14 3.15c0 10.88 4.59 17.17 16.92 17.17 6 0 10.09-1.57 14.55-3.93a27.07 27.07 0 01-25.7 18.22c-14 0-22.81-10-22.81-25.69 0-22.16 14-43.27 34.87-43.27 13.38 0 18.88 8.13 18.88 18.88zm-16.12-3.28c0-6.94-2.36-9.83-6.3-9.83-7.73 0-12.32 13.51-13.76 24.65h13.5c4.2 0 4.85-.53 5.77-6.56a54.38 54.38 0 00.79-8.26zM421.45 266.43a31.21 31.21 0 01-.53 5.9l-1.57 9.57h-34.48a25.53 25.53 0 00-.13 3.15c0 10.88 4.59 17.17 16.91 17.17 6 0 10.1-1.57 14.56-3.93a27.08 27.08 0 01-25.7 18.22c-14 0-22.81-10-22.81-25.69 0-22.16 14-43.27 34.87-43.27 13.37 0 18.88 8.13 18.88 18.88zm-16.13-3.28c0-6.94-2.36-9.83-6.29-9.83-7.73 0-12.32 13.51-13.76 24.65h13.5c4.19 0 4.85-.53 5.77-6.56a54.2 54.2 0 00.78-8.26zM472.71 248.34l-6.56 22.94c-4.32-8.39-7.6-10.62-10.48-10.62-4.86 0-6.82 6-8.79 17.44L444 295a65.06 65.06 0 00-1.18 10.88 45.22 45.22 0 001.05 8.92h-22.42c4.06-7.61 5.24-12.72 6.42-19.8l3.13-18.74a69.17 69.17 0 00.92-10.09 27 27 0 00-2.1-11 179.38 179.38 0 0017.7-7.74c1.57 2.62 2 8.52 2 12.46v1.7c4.72-11.14 10.23-13.9 17.7-13.9a23.64 23.64 0 015.49.65zM283.44 187.06c-5 .24-6.11 13.7-21.92 28.5-12.13 11.21-31.36 9.16-39.78 7.53.46-.49 13.11-15 18.86-25.9a108.5 108.5 0 016.39-11c14.49-18.88 19.64-28.29 21.21-42.22s-7.29-26.06-5.29-10.94c1.49 11.2-4.85 20.77-12 27.16a73.86 73.86 0 00-1-15.19c-.08-.63-.25-1.37-.33-2-3-19.77-8.46-36.93-21.53-51.92-11-12.68-7.35-.25-3.74 3.93 13.76 17.38 14.72 45.13 3.42 75.78A116 116 0 01206.48 206a171.31 171.31 0 01-20.41 19.82 181.24 181.24 0 001.33-30.32c-.6-17.28-5.67-5-5.48.7-.2 21.4-10.44 36.24-20.17 45.7a25.49 25.49 0 0120.74 13.6q2.46-1.62 4.8-3.25c5.57-2.42 13.51-8.79 21.61-12.93 28.19 2.66 50.49-5.76 59.73-18.68s19.83-33.72 14.81-33.58z"/></svg>
